<?xml version="1.0" ?><svg height="128" id="svg8" version="1.1" viewBox="0 0 33.866666 33.866668" width="128" xmlns="http://www.w3.org/2000/svg" xmlns:cc="http://creativecommons.org/ns#" xmlns:dc="http://purl.org/dc/elements/1.1/" xmlns:inkscape="http://www.inkscape.org/namespaces/inkscape" xmlns:rdf="http://www.w3.org/1999/02/22-rdf-syntax-ns#" xmlns:sodipodi="http://sodipodi.sourceforge.net/DTD/sodipodi-0.dtd" xmlns:svg="http://www.w3.org/2000/svg" xmlns:xlink="http://www.w3.org/1999/xlink"><defs id="defs2"><linearGradient id="linearGradient2202"><stop id="stop2198" offset="0" style="stop-color:#f6f600;stop-opacity:1;"/><stop id="stop2200" offset="1" style="stop-color:#f69134;stop-opacity:1"/></linearGradient><linearGradient gradientTransform="matrix(0.39352029,0,0,0.39352035,-185.27183,93.82285)" gradientUnits="userSpaceOnUse" id="linearGradient3363" x1="12.262755" x2="12.262755" xlink:href="#linearGradient2202" y1="9.0164375" y2="14.680936"/><clipPath clipPathUnits="userSpaceOnUse" id="clipPath3457"><rect height="58.93293" id="rect3459" rx="2.6458333" ry="2.6458333" style="fill:#1a1a1a;stroke-width:0.264583;stroke-linecap:square;stroke-dasharray:0.264583, 1.05833;paint-order:fill markers stroke" width="61.739258" x="-262.11121" y="114.49826"/></clipPath></defs><g id="layer1"><path d="m 11.310938,21.563541 h 2.116666 c 0.732896,0 1.322917,0.590021 1.322917,1.322917 v 8.59896 c 0,0.732896 -0.590021,1.322916 -1.322917,1.322916 h -2.116666 c -0.732896,0 -1.3229171,-0.59002 -1.3229171,-1.322916 v -8.59896 c 0,-0.732896 0.5900211,-1.322917 1.3229171,-1.322917 z" id="rect3612" style="fill:#0ecf75;stroke:none;stroke-width:0.264583;stroke-linecap:square;stroke-dasharray:0.264583, 1.05833000000000022;paint-order:fill markers stroke;fill-opacity:1"/><path d="m 20.439063,21.563541 h 2.116666 c 0.732896,0 1.322917,0.590021 1.322917,1.322917 v 8.59896 c 0,0.732896 -0.590021,1.322916 -1.322917,1.322916 h -2.116666 c -0.732896,0 -1.322917,-0.59002 -1.322917,-1.322916 v -8.59896 c 0,-0.732896 0.590021,-1.322917 1.322917,-1.322917 z" id="rect3614" style="fill:#0ecf75;stroke:none;stroke-width:0.264583;stroke-linecap:square;stroke-dasharray:0.264583, 1.05833000000000022;paint-order:fill markers stroke;fill-opacity:1"/><path d="m 9.0950522,13.978092 c -0.7328958,0 -1.3229167,0.59002 -1.3229167,1.322916 v 10.495867 c 0,1.026054 0.8260292,1.852083 1.8520833,1.852083 H 24.242448 c 1.026054,0 1.852083,-0.826029 1.852083,-1.852083 V 15.301008 c 0,-0.732896 -0.59002,-1.322916 -1.322917,-1.322916 z" id="path3634" style="fill:#59d96b;fill-opacity:1;stroke:none;stroke-width:0.264583;stroke-linecap:square;stroke-dasharray:0.264583, 1.05833000000000022;paint-order:fill markers stroke"/><path d="m 38.386719,4.0039062 c -0.358713,0.023182 -0.716724,0.1279681 -1.056641,0.3242188 -1.208594,0.697782 -1.540172,2.1902844 -0.921875,3.4414062 l 4.730469,9.5722658 C 33.922833,23.678324 29.375,27.846577 29.375,38.248476 v 1.875 c 0,2.770001 2.23,5 5,5 h 59.25 c 2.770004,0 5,-2.229999 5,-5 v -1.875 c 0,-10.401899 -4.547833,-14.570152 -11.763672,-20.906679 L 91.591797,7.7695312 C 92.210094,6.5184094 91.878513,5.025907 90.669922,4.328125 90.216704,4.066457 89.728101,3.9681528 89.253906,4.0078125 88.463588,4.0739127 87.714441,4.5243609 87.230469,5.25 l -5.552735,8.324219 C 76.508401,10.510828 70.468601,8.75 64,8.75 c -6.4686,0 -12.508401,1.760828 -17.677734,4.824219 L 40.771484,5.25 C 40.287512,4.5243609 39.534463,4.073913 38.744141,4.0078125 38.625593,3.9978974 38.50629,3.9961788 38.386719,4.0039062 Z" id="rect3607" style="fill:#59d96b;fill-opacity:1;stroke:none;stroke-width:0.999999;stroke-linecap:square;stroke-dasharray:0.999999, 3.99998999999999993;paint-order:fill markers stroke" transform="scale(0.26458333)"/><path d="m 3.4395823,13.892561 c 1.3192125,0 2.38125,1.062037 2.38125,2.38125 v 6.482293 c 0,1.319212 -1.0620375,2.38125 -2.38125,2.38125 -1.3192124,0 -2.3812499,-1.062038 -2.3812499,-2.38125 v -6.482293 c 0,-1.319213 1.0620375,-2.38125 2.3812499,-2.38125 z" id="rect3622" style="fill:#59d96b;stroke:none;stroke-width:0.264583;stroke-linecap:square;stroke-dasharray:0.264583, 1.05833000000000022;paint-order:fill markers stroke;fill-opacity:1"/><path d="m 30.427085,13.892561 c 1.319213,0 2.38125,1.062037 2.38125,2.38125 v 6.482293 c 0,1.319212 -1.062037,2.38125 -2.38125,2.38125 -1.319212,0 -2.38125,-1.062038 -2.38125,-2.38125 v -6.482293 c 0,-1.319213 1.062038,-2.38125 2.38125,-2.38125 z" id="rect3624" style="fill:#59d96b;stroke:none;stroke-width:0.264583;stroke-linecap:square;stroke-dasharray:0.264583, 1.05833000000000022;paint-order:fill markers stroke;fill-opacity:1"/><g id="g3685" style="fill:#ffffff" transform="translate(0.51564933,-0.70158251)"><path d="m 12.862346,10.14956 a 1.0289876,1.0289876 0 0 1 -1.028988,-1.0289873 1.0289876,1.0289876 0 0 1 1.028988,-1.028988 1.0289876,1.0289876 0 0 1 1.028987,1.028988 1.0289876,1.0289876 0 0 1 -1.028987,1.0289873 z" id="path3668" style="fill:#ffffff;fill-opacity:1;stroke:none;stroke-width:0.264583;stroke-linecap:square;stroke-dasharray:0.264583, 1.05832999999999999;paint-order:fill markers stroke"/><path d="M 19.973023,10.14956 A 1.0289876,1.0289876 0 0 1 18.944035,9.1205727 1.0289876,1.0289876 0 0 1 19.973023,8.0915847 1.0289876,1.0289876 0 0 1 21.00201,9.1205727 1.0289876,1.0289876 0 0 1 19.973023,10.14956 Z" id="path3679" style="fill:#ffffff;fill-opacity:1;stroke:none;stroke-width:0.264583;stroke-linecap:square;stroke-dasharray:0.264583, 1.05832999999999999;paint-order:fill markers stroke"/></g></g></svg>